<svg width="2400" height="2400" viewBox="0 0 32 32" fill="none" xmlns="http://www.w3.org/2000/svg">
  <circle cx="16" cy="16" r="15.905" fill="#020617"/>
  <g clip-path="url(#a)" fill="#fff">
    <path d="M21.764 12.512h-1.858a.76.76 0 0 1-.565-.254l-.754-.85a.6.6 0 0 0-.442-.201.6.6 0 0 0-.443.201l-.648.732c-.21.237-.517.377-.833.377H6.052c-.29.82-.478 1.691-.552 2.598h9.6c.17 0 .328-.07.447-.193l.893-.933a.58.58 0 0 1 .425-.184h.035a.6.6 0 0 1 .443.202l.753.85a.76.76 0 0 0 .566.254h7.834a10.5 10.5 0 0 0-.552-2.603zM11.31 20.583c.171 0 .329-.07.447-.193l.894-.933a.6.6 0 0 1 .43-.184h.034c.171 0 .333.074.443.197l.753.85c.145.162.35.254.566.254h10.62a10.5 10.5 0 0 0 .863-2.629H16.165a.76.76 0 0 1-.565-.254l-.754-.84a.596.596 0 0 0-.885 0l-.649.73a1.1 1.1 0 0 1-.836.378H5.645c.175.924.464 1.805.863 2.628zm7.531-10.914c.171 0 .329-.07.447-.193l.894-.933a.6.6 0 0 1 .43-.184h.034c.171 0 .329.074.443.201l.754.855c.144.162.35.254.565.254h2.02a10.52 10.52 0 0 0-8.426-4.21 10.52 10.52 0 0 0-8.43 4.21zM14.789 23.19h-2.76a.76.76 0 0 1-.566-.254l-.753-.85a.597.597 0 0 0-.885 0l-.649.732a1.1 1.1 0 0 1-.837.376h-.044a10.52 10.52 0 0 0 7.707 3.352c3.045 0 5.78-1.293 7.707-3.352z"/>
  </g>
  <defs>
    <clipPath id="a">
      <path fill="#fff" d="M5.5 5.458h21v21.083h-21z"/>
    </clipPath>
  </defs>
</svg>
