<svg width="16" height="16" viewBox="0 0 16 16" fill="none" xmlns="http://www.w3.org/2000/svg">
<mask id="mask0_80_4851" style="mask-type:luminance" maskUnits="userSpaceOnUse" x="0" y="0" width="16" height="16">
<path d="M0 0H16V16H0V0Z" fill="white"/>
</mask>
<g mask="url(#mask0_80_4851)">
<path d="M8 16C12.4184 16 16 12.4184 16 8C16 3.5816 12.4184 0 8 0C3.5816 0 0 3.5816 0 8C0 12.4184 3.5816 16 8 16Z" fill="#E84142"/>
<path fill-rule="evenodd" clip-rule="evenodd" d="M5.75863 11.3748H4.24463C3.92663 11.3748 3.76983 11.3748 3.67383 11.3136C3.62317 11.2806 3.58101 11.2362 3.55077 11.1838C3.52054 11.1315 3.50308 11.0728 3.49983 11.0124C3.49383 10.8996 3.57183 10.7608 3.72983 10.4848L7.46583 3.88881C7.62463 3.60881 7.70583 3.46881 7.80663 3.41681C7.8607 3.38921 7.92053 3.37482 7.98123 3.37482C8.04193 3.37482 8.10177 3.38921 8.15583 3.41681C8.25703 3.46881 8.33783 3.60881 8.49663 3.88881L9.26463 5.23161L9.26863 5.23841C9.44023 5.53841 9.52703 5.69161 9.56503 5.85161C9.60783 6.02641 9.60783 6.20921 9.56503 6.38441C9.52703 6.54601 9.44103 6.69961 9.26663 7.00441L7.30383 10.48L7.29863 10.488C7.12583 10.7912 7.03863 10.9448 6.91663 11.0608C6.78534 11.1864 6.62601 11.279 6.45183 11.3308C6.29183 11.3752 6.11423 11.3752 5.75823 11.3752L5.75863 11.3748ZM9.58023 11.3748H11.7482C12.0682 11.3748 12.229 11.3748 12.325 11.312C12.376 11.2788 12.4184 11.234 12.4486 11.1812C12.4789 11.1284 12.4962 11.0692 12.499 11.0084C12.5046 10.8988 12.4282 10.7664 12.2778 10.506L12.2618 10.4788L11.1758 8.61801L11.163 8.59681C11.011 8.33841 10.933 8.20801 10.835 8.15761C10.7814 8.13009 10.7219 8.11574 10.6616 8.11574C10.6013 8.11574 10.5419 8.13009 10.4882 8.15761C10.3882 8.20961 10.3082 8.34561 10.149 8.62001L9.06663 10.4808L9.06303 10.4876C8.90463 10.7616 8.82503 10.898 8.83103 11.0104C8.83429 11.071 8.85173 11.1301 8.88195 11.1827C8.91217 11.2354 8.95433 11.2802 9.00503 11.3136C9.09903 11.3748 9.26023 11.3748 9.58023 11.3748Z" fill="white"/>
</g>
</svg>
