<svg width="2400" height="2400" viewBox="0 0 32 32" fill="none" xmlns="http://www.w3.org/2000/svg">
  <mask id="a" style="mask-type:luminance" maskUnits="userSpaceOnUse" x="0" y="0" width="32" height="32">
    <path d="M16 32C7.163 32 0 24.837 0 16S7.163 0 16 0s16 7.163 16 16-7.163 16-16 16" fill="#fff"/>
  </mask>
  <g mask="url(#a)" fill-rule="evenodd" clip-rule="evenodd">
    <path d="m16 16-22.63-.14.02-.831z" fill="#FEFEFF"/>
    <path d="m16 16-22.614-.833.034-.694z" fill="#FDFEFF"/>
    <path d="m16 16-22.587-1.387.051-.693z" fill="#FCFDFF"/>
    <path d="m16 16-22.546-1.942.068-.69z" fill="#FBFCFF"/>
    <path d="m16 16-22.49-2.495.084-.688z" fill="#FAFCFF"/>
    <path d="m16 16-22.423-3.045.1-.687z" fill="#F9FBFF"/>
    <path d="m16 16-22.341-3.595.117-.684z" fill="#F8FAFF"/>
    <path d="m16 16-22.246-4.142.134-.681z" fill="#F7FAFF"/>
    <path d="m16 16-22.14-4.686.153-.678z" fill="#F6F9FF"/>
    <path d="m16 16-22.017-5.229.169-.673z" fill="#F5F8FF"/>
    <path d="m16 16-21.882-5.767.184-.67z" fill="#F4F8FF"/>
    <path d="M16 16-5.734 9.697l.202-.664z" fill="#F3F7FF"/>
    <path d="M16 16-5.573 9.166l.219-.66z" fill="#F2F6FF"/>
    <path d="M16 16-5.4 8.64l.235-.654z" fill="#F1F6FF"/>
    <path d="M16 16-5.21 8.115l.249-.647z" fill="#F0F5FF"/>
    <path d="M16 16-5.013 7.597l.265-.641z" fill="#EFF4FF"/>
    <path d="M16 16-4.798 7.084l.281-.634z" fill="#EEF3FF"/>
    <path d="M16 16-4.573 6.577l.297-.627z" fill="#EDF3FF"/>
    <path d="M16 16-4.337 6.075l.312-.62z" fill="#ECF2FF"/>
    <path d="M16 16-4.087 5.578l.327-.611z" fill="#EBF1FF"/>
    <path d="M16 16-3.826 5.09l.342-.606z" fill="#EAF1FF"/>
    <path d="M16 16-3.55 4.606l.356-.596z" fill="#E9F0FF"/>
    <path d="M16 16-3.266 4.13l.372-.588z" fill="#E8EFFF"/>
    <path d="M16 16-2.97 3.66l.387-.578z" fill="#E7EFFF"/>
    <path d="M16 16-2.66 3.198l.4-.568z" fill="#E6EEFF"/>
    <path d="M16 16-2.34 2.744l.414-.558z" fill="#E5EDFF"/>
    <path d="M16 16-2.01 2.298l.428-.548z" fill="#E4EDFF"/>
    <path d="M16 16-1.668 1.86l.44-.536z" fill="#E3ECFF"/>
    <path d="M16 16-1.315 1.431l.453-.526z" fill="#E2EBFF"/>
    <path d="M16 16-.952 1.01l.466-.514z" fill="#E1EBFF"/>
    <path d="M16 16-.58.6-.1.095z" fill="#E0EAFF"/>
    <path d="M16 16-.197.197l.492-.491z" fill="#DFE9FF"/>
    <path d="M16 16 .197-.197l.502-.477z" fill="#DEE9FF"/>
    <path d="M16 16 .6-.58l.514-.466z" fill="#DDE8FF"/>
    <path d="M16 16 1.01-.952l.525-.453z" fill="#DCE7FF"/>
    <path d="M16 16 1.431-1.314l.536-.44z" fill="#DBE7FF"/>
    <path d="M16 16 1.86-1.668l.547-.426z" fill="#DAE6FF"/>
    <path d="M16 16 2.298-2.01l.558-.413z" fill="#D9E5FF"/>
    <path d="M16 16 2.743-2.34l.567-.399z" fill="#D8E5FF"/>
    <path d="M16 16 3.196-2.66l.577-.385z" fill="#D7E4FF"/>
    <path d="M16 16 3.66-2.968l.587-.371z" fill="#D6E3FF"/>
    <path d="M16 16 4.129-3.265l.595-.357z" fill="#D5E3FF"/>
    <path d="M16 16 4.605-3.55l.605-.342z" fill="#D4E2FF"/>
    <path d="M16 16 5.089-3.825l.612-.327z" fill="#D3E1FF"/>
    <path d="M16 16 5.578-4.087l.62-.311z" fill="#D2E0FF"/>
    <path d="M16 16 6.075-4.337l.627-.295z" fill="#D1E0FF"/>
    <path d="M16 16 6.577-4.573l.635-.282z" fill="#D0DFFF"/>
    <path d="M16 16 7.084-4.799l.642-.266z" fill="#CFDEFF"/>
    <path d="M16 16 7.597-5.01l.649-.25z" fill="#CEDEFF"/>
    <path d="M16 16 8.115-5.21l.654-.235z" fill="#CDDDFF"/>
    <path d="M16 16 8.64-5.399l.658-.216z" fill="#CCDCFF"/>
    <path d="M16 16 9.165-5.573l.664-.201z" fill="#CBDCFF"/>
    <path d="M16 16 9.697-5.734l.67-.185z" fill="#CADBFF"/>
    <path d="M16 16 10.232-5.88l.673-.17z" fill="#C9DAFF"/>
    <path d="M16 16 10.77-6.017l.677-.151z" fill="#C8DAFF"/>
    <path d="M16 16 11.314-6.139l.68-.134z" fill="#C7D9FF"/>
    <path d="M16 16 11.858-6.246l.683-.12z" fill="#C6D8FF"/>
    <path d="M16 16 12.405-6.34l.687-.102z" fill="#C5D8FF"/>
    <path d="M16 16 12.955-6.423l.688-.084z" fill="#C4D7FF"/>
    <path d="M16 16 13.505-6.49l.692-.069z" fill="#C3D6FF"/>
    <path d="M16 16 14.06-6.546l.692-.051z" fill="#C2D6FF"/>
    <path d="M16 16 14.612-6.587l.694-.033z" fill="#C1D5FF"/>
    <path d="m16 16-.834-22.614.694-.016z" fill="#C0D4FF"/>
    <path d="m16 16-.278-22.628h.693z" fill="#BFD4FF"/>
    <path d="m16 16 .278-22.628.694.018z" fill="#BED3FF"/>
    <path d="m16 16 .833-22.614.693.035z" fill="#BDD2FF"/>
    <path d="m16 16 1.387-22.587.693.051z" fill="#BCD2FF"/>
    <path d="m16 16 1.942-22.546.691.068z" fill="#BBD1FF"/>
    <path d="m16 16 2.493-22.49.69.084z" fill="#BAD0FF"/>
    <path d="m16 16 3.045-22.423.688.101z" fill="#B9D0FF"/>
    <path d="m16 16 3.594-22.34.685.118z" fill="#B8CFFF"/>
    <path d="m16 16 4.142-22.246.681.134z" fill="#B7CEFF"/>
    <path d="m16 16 4.686-22.139.678.153z" fill="#B6CDFF"/>
    <path d="m16 16 5.229-22.017.673.169z" fill="#B5CDFF"/>
    <path d="m16 16 5.768-21.88.668.184z" fill="#B4CCFF"/>
    <path d="m16 16 6.303-21.734.664.202z" fill="#B3CBFF"/>
    <path d="m16 16 6.834-21.573.66.219z" fill="#B2CBFF"/>
    <path d="m16 16 7.361-21.399.654.234z" fill="#B1CAFF"/>
    <path d="m16 16 7.885-21.21.647.249z" fill="#B0C9FF"/>
    <path d="m16 16 8.402-21.01.642.265z" fill="#AFC9FF"/>
    <path d="m16 16 8.915-20.799.635.282z" fill="#AEC8FF"/>
    <path d="m16 16 9.423-20.573.628.297z" fill="#ADC7FF"/>
    <path d="m16 16 9.925-20.336.62.312z" fill="#ACC7FF"/>
    <path d="M16 16 26.422-4.087l.612.328z" fill="#ABC6FF"/>
    <path d="M16 16 26.91-3.824l.606.341z" fill="#AAC5FF"/>
    <path d="M16 16 27.395-3.55l.595.357z" fill="#A9C5FF"/>
    <path d="M16 16 27.87-3.265l.587.371z" fill="#A8C4FF"/>
    <path d="M16 16 28.34-2.968l.578.386z" fill="#A7C3FF"/>
    <path d="M16 16 28.803-2.66l.567.4z" fill="#A6C3FF"/>
    <path d="M16 16 29.256-2.34l.558.414z" fill="#A5C2FF"/>
    <path d="M16 16 29.702-2.01l.547.428z" fill="#A4C1FF"/>
    <path d="M16 16 30.14-1.668l.537.44z" fill="#A3C1FF"/>
    <path d="M16 16 30.569-1.314l.526.453z" fill="#A2C0FF"/>
    <path d="M16 16 30.99-.952l.515.466z" fill="#A1BFFF"/>
    <path d="M16 16 31.401-.58l.503.48z" fill="#A0BFFF"/>
    <path d="M16 16 31.803-.197l.491.492z" fill="#9FBEFF"/>
    <path d="M16 16 32.196.197l.479.502z" fill="#9EBDFF"/>
    <path d="M16 16 32.58.6l.466.514z" fill="#9DBDFF"/>
    <path d="M16 16 32.952 1.01l.453.526z" fill="#9CBCFF"/>
    <path d="M16 16 33.315 1.431l.44.536z" fill="#9BBBFF"/>
    <path d="M16 16 33.668 1.86l.426.548z" fill="#9ABAFF"/>
    <path d="M16 16 34.01 2.298l.413.558z" fill="#99BAFF"/>
    <path d="M16 16 34.34 2.744l.4.567z" fill="#98B9FF"/>
    <path d="M16 16 34.66 3.198l.385.577z" fill="#97B8FF"/>
    <path d="M16 16 34.968 3.66l.371.587z" fill="#96B8FF"/>
    <path d="M16 16 35.265 4.13l.357.595z" fill="#95B7FF"/>
    <path d="M16 16 35.55 4.606l.343.604z" fill="#94B6FF"/>
    <path d="M16 16 35.825 5.09l.326.611z" fill="#93B6FF"/>
    <path d="M16 16 36.086 5.578l.312.621z" fill="#92B5FF"/>
    <path d="m16 16 20.337-9.925.295.627z" fill="#91B4FF"/>
    <path d="m16 16 20.573-9.423.282.635z" fill="#90B4FF"/>
    <path d="m16 16 20.799-8.916.265.642z" fill="#8FB3FF"/>
    <path d="m16 16 21.011-8.403.25.649z" fill="#8EB2FF"/>
    <path d="m16 16 21.21-7.885.235.654z" fill="#8DB2FF"/>
    <path d="m16 16 21.398-7.361.217.659z" fill="#8CB1FF"/>
    <path d="m16 16 21.572-6.834.202.665z" fill="#8BB0FF"/>
    <path d="m16 16 21.733-6.303.186.67z" fill="#8AB0FF"/>
    <path d="m16 16 21.882-5.767.169.673z" fill="#89AFFF"/>
    <path d="m16 16 22.017-5.229.151.677z" fill="#88AEFF"/>
    <path d="m16 16 22.138-4.686.135.68z" fill="#87AEFF"/>
    <path d="m16 16 22.246-4.142.12.683z" fill="#86ADFF"/>
    <path d="m16 16 22.341-3.595.102.687z" fill="#85ACFF"/>
    <path d="m16 16 22.423-3.045.084.689z" fill="#84ACFF"/>
    <path d="m16 16 22.49-2.495.069.692z" fill="#83ABFF"/>
    <path d="m16 16 22.546-1.942.051.693z" fill="#82AAFF"/>
    <path d="m16 16 22.587-1.387.033.693z" fill="#81AAFF"/>
    <path d="m16 16 22.614-.833.016.694z" fill="#80A9FF"/>
    <path d="m16 16 22.627-.278v.694z" fill="#7FA8FF"/>
    <path d="m16 16 22.627.278-.017.694z" fill="#7EA7FF"/>
    <path d="m16 16 22.614.833-.035.693z" fill="#7DA7FF"/>
    <path d="m16 16 22.587 1.388-.051.692z" fill="#7CA6FF"/>
    <path d="m16 16 22.546 1.942-.068.691z" fill="#7BA5FF"/>
    <path d="m16 16 22.49 2.494-.084.69z" fill="#7AA5FF"/>
    <path d="m16 16 22.423 3.045-.102.688z" fill="#79A4FF"/>
    <path d="m16 16 22.341 3.594-.118.685z" fill="#78A3FF"/>
    <path d="m16 16 22.246 4.142-.135.681z" fill="#77A3FF"/>
    <path d="m16 16 22.138 4.686-.151.679z" fill="#76A2FF"/>
    <path d="m16 16 22.017 5.229-.169.673z" fill="#75A1FF"/>
    <path d="m16 16 21.882 5.768-.185.668z" fill="#74A1FF"/>
    <path d="m16 16 21.733 6.303-.2.664z" fill="#73A0FF"/>
    <path d="m16 16 21.572 6.834-.218.66z" fill="#729FFF"/>
    <path d="m16 16 21.398 7.361-.233.654z" fill="#719FFF"/>
    <path d="m16 16 21.21 7.885-.249.648z" fill="#709EFF"/>
    <path d="m16 16 21.011 8.402-.266.643z" fill="#6F9DFF"/>
    <path d="m16 16 20.799 8.915-.282.635z" fill="#6E9DFF"/>
    <path d="m16 16 20.573 9.424-.297.627z" fill="#6D9CFF"/>
    <path d="m16 16 20.337 9.925-.313.621z" fill="#6C9BFF"/>
    <path d="m16 16 20.086 10.422-.327.612z" fill="#6B9BFF"/>
    <path d="m16 16 19.825 10.91-.342.606z" fill="#6A9AFF"/>
    <path d="m16 16 19.55 11.395-.356.595z" fill="#6999FF"/>
    <path d="m16 16 19.265 11.87-.37.587z" fill="#6899FF"/>
    <path d="m16 16 18.968 12.34-.386.578z" fill="#6798FF"/>
    <path d="m16 16 18.66 12.803-.4.567z" fill="#6697FF"/>
    <path d="m16 16 18.34 13.256-.414.558z" fill="#6597FF"/>
    <path d="m16 16 18.01 13.703-.428.546z" fill="#6496FF"/>
    <path d="m16 16 17.668 14.14-.44.537z" fill="#6395FF"/>
    <path d="m16 16 17.315 14.57-.454.525z" fill="#6294FF"/>
    <path d="m16 16 16.952 14.99-.466.515z" fill="#6194FF"/>
    <path d="m16 16 16.58 15.401-.479.503z" fill="#6093FF"/>
    <path d="m16 16 16.196 15.803-.49.491z" fill="#5F92FF"/>
    <path d="m16 16 15.803 16.196-.502.479z" fill="#5E92FF"/>
    <path d="m16 16 15.401 16.58-.515.466z" fill="#5D91FF"/>
    <path d="m16 16 14.99 16.952-.526.454z" fill="#5C90FF"/>
    <path d="m16 16 14.569 17.315-.536.44z" fill="#5B90FF"/>
    <path d="m16 16 14.14 17.668-.548.426z" fill="#5A8FFF"/>
    <path d="m16 16 13.702 18.01-.558.413z" fill="#598EFF"/>
    <path d="m16 16 13.256 18.34-.567.4z" fill="#588EFF"/>
    <path d="m16 16 12.803 18.66-.579.385z" fill="#578DFF"/>
    <path d="m16 16 12.34 18.968-.587.372z" fill="#568CFF"/>
    <path d="m16 16 11.87 19.265-.594.358z" fill="#558CFF"/>
    <path d="m16 16 11.395 19.55-.605.343z" fill="#548BFF"/>
    <path d="m16 16 10.91 19.825-.611.326z" fill="#538AFF"/>
    <path d="m16 16 10.422 20.086-.621.312z" fill="#528AFF"/>
    <path d="m16 16 9.925 20.337-.627.295z" fill="#5189FF"/>
    <path d="m16 16 9.423 20.574-.634.281z" fill="#5088FF"/>
    <path d="m16 16 8.915 20.8-.641.265z" fill="#4F88FF"/>
    <path d="m16 16 8.402 21.011-.648.25z" fill="#4E87FF"/>
    <path d="m16 16 7.885 21.211-.654.234z" fill="#4D86FF"/>
    <path d="m16 16 7.361 21.398-.659.217z" fill="#4C86FF"/>
    <path d="m16 16 6.834 21.572-.664.202z" fill="#4B85FF"/>
    <path d="m16 16 6.303 21.733-.67.186z" fill="#4A84FF"/>
    <path d="m16 16 5.768 21.882-.675.169z" fill="#4984FF"/>
    <path d="m16 16 5.229 22.017-.677.151z" fill="#4883FF"/>
    <path d="m16 16 4.686 22.138-.68.135z" fill="#4782FF"/>
    <path d="m16 16 4.142 22.246-.683.12z" fill="#4681FF"/>
    <path d="m16 16 3.594 22.341-.686.103z" fill="#4581FF"/>
    <path d="m16 16 3.045 22.423-.689.085z" fill="#4480FF"/>
    <path d="m16 16 2.493 22.491-.69.068z" fill="#437FFF"/>
    <path d="m16 16 1.942 22.546-.693.051z" fill="#427FFF"/>
    <path d="m16 16 1.387 22.587-.693.033z" fill="#417EFF"/>
    <path d="m16 16 .833 22.614-.695.017z" fill="#407DFF"/>
    <path d="m16 16 .278 22.627h-.695z" fill="#3F7DFF"/>
    <path d="m16 16-.278 22.627-.694-.017z" fill="#3E7CFF"/>
    <path d="m16 16-.834 22.614-.693-.035z" fill="#3D7BFF"/>
    <path d="m16 16-1.387 22.587-.693-.051z" fill="#3C7BFF"/>
    <path d="m16 16-1.942 22.546-.69-.068z" fill="#3B7AFF"/>
    <path d="m16 16-2.495 22.491-.689-.084z" fill="#3A79FF"/>
    <path d="m16 16-3.046 22.423-.687-.102z" fill="#3979FF"/>
    <path d="m16 16-3.596 22.341-.684-.118z" fill="#3878FF"/>
    <path d="m16 16-4.142 22.246-.681-.135z" fill="#3777FF"/>
    <path d="m16 16-4.686 22.138-.679-.151z" fill="#3677FF"/>
    <path d="m16 16-5.23 22.017-.672-.169z" fill="#3576FF"/>
    <path d="m16 16-5.768 21.882-.67-.185z" fill="#3475FF"/>
    <path d="M16 16 9.697 37.733l-.664-.2z" fill="#3375FF"/>
    <path d="M16 16 9.166 37.572l-.66-.218z" fill="#3274FF"/>
    <path d="M16 16 8.638 37.398l-.654-.233z" fill="#3173FF"/>
    <path d="M16 16 8.115 37.211l-.648-.25z" fill="#3073FF"/>
    <path d="M16 16 7.597 37.011l-.641-.266z" fill="#2F72FF"/>
    <path d="M16 16 7.084 36.8l-.634-.282z" fill="#2E71FF"/>
    <path d="M16 16 6.576 36.574l-.627-.297z" fill="#2D71FF"/>
    <path d="M16 16 6.075 36.337l-.62-.313z" fill="#2C70FF"/>
    <path d="M16 16 5.578 36.086l-.612-.326z" fill="#2B6FFF"/>
    <path d="M16 16 5.089 35.825l-.606-.342z" fill="#2A6EFF"/>
    <path d="M16 16 4.605 35.55l-.595-.356z" fill="#296EFF"/>
    <path d="M16 16 4.129 35.265l-.587-.37z" fill="#286DFF"/>
    <path d="M16 16 3.66 34.968l-.578-.386z" fill="#276CFF"/>
    <path d="M16 16 3.197 34.66l-.567-.4z" fill="#266CFF"/>
    <path d="M16 16 2.744 34.34l-.558-.414z" fill="#256BFF"/>
    <path d="M16 16 2.298 34.01l-.548-.428z" fill="#246AFF"/>
    <path d="M16 16 1.86 33.668l-.537-.44z" fill="#236AFF"/>
    <path d="M16 16 1.43 33.315l-.525-.453z" fill="#2269FF"/>
    <path d="M16 16 1.01 32.952l-.515-.465z" fill="#2168FF"/>
    <path d="M16 16 .6 32.58l-.505-.48z" fill="#2068FF"/>
    <path d="M16 16 .197 32.196l-.491-.49z" fill="#1F67FF"/>
    <path d="M16 16-.197 31.803l-.478-.502z" fill="#1E66FF"/>
    <path d="M16 16-.58 31.401l-.466-.514z" fill="#1D66FF"/>
    <path d="M16 16-.952 30.99l-.453-.526z" fill="#1C65FF"/>
    <path d="M16 16-1.315 30.57l-.44-.537z" fill="#1B64FF"/>
    <path d="M16 16-1.668 30.14l-.426-.548z" fill="#1A64FF"/>
    <path d="M16 16-2.01 29.703l-.413-.559z" fill="#1963FF"/>
    <path d="M16 16-2.34 29.256l-.4-.567z" fill="#1862FF"/>
    <path d="M16 16-2.66 28.803l-.385-.579z" fill="#1762FF"/>
    <path d="M16 16-2.97 28.34l-.37-.587z" fill="#1661FF"/>
    <path d="M16 16-3.265 27.87l-.358-.594z" fill="#1560FF"/>
    <path d="M16 16-3.55 27.395l-.342-.604z" fill="#1460FF"/>
    <path d="M16 16-3.825 26.91l-.327-.611z" fill="#135FFF"/>
    <path d="M16 16-4.087 26.422l-.311-.62z" fill="#125EFF"/>
    <path d="m16 16-20.337 9.925-.296-.627z" fill="#115EFF"/>
    <path d="m16 16-20.574 9.424-.281-.635z" fill="#105DFF"/>
    <path d="m16 16-20.799 8.915-.266-.641z" fill="#0F5CFF"/>
    <path d="m16 16-21.01 8.402-.25-.648z" fill="#0E5BFF"/>
    <path d="m16 16-21.211 7.885-.234-.654z" fill="#0D5BFF"/>
    <path d="m16 16-21.4 7.361-.216-.659z" fill="#0C5AFF"/>
    <path d="m16 16-21.573 6.834-.201-.664z" fill="#0B59FF"/>
    <path d="m16 16-21.735 6.303-.184-.67z" fill="#0A59FF"/>
    <path d="m16 16-21.882 5.768-.169-.675z" fill="#0958FF"/>
    <path d="m16 16-22.017 5.23-.151-.677z" fill="#0857FF"/>
    <path d="m16 16-22.14 4.686-.134-.68z" fill="#0757FF"/>
    <path d="m16 16-22.247 4.142-.119-.683z" fill="#0656FF"/>
    <path d="m16 16-22.341 3.594-.103-.686z" fill="#0555FF"/>
    <path d="m16 16-22.423 3.045-.085-.688z" fill="#0455FF"/>
    <path d="m16 16-22.49 2.494-.069-.69z" fill="#0354FF"/>
    <path d="m16 16-22.546 1.942-.052-.693z" fill="#0253FF"/>
    <path d="m16 16-22.587 1.388-.033-.694z" fill="#0153FF"/>
    <path d="m16 16-22.614.833-.016-.695z" fill="#0052FF"/>
    <path d="m16 16-22.628.278v-.556z" fill="#fff"/>
  </g>
</svg>
