<svg width="16" height="16" viewBox="0 0 16 16" fill="none" xmlns="http://www.w3.org/2000/svg">
<g clip-path="url(#clip0_80_4836)">
<path fill-rule="evenodd" clip-rule="evenodd" d="M8 0C12.4186 0 16 3.58141 16 8C16 12.4186 12.4186 16 8 16C3.58141 16 0 12.4186 0 8C0 3.58141 3.58141 0 8 0Z" fill="#F0B90B"/>
<path d="M4.39689 7.99999L4.40266 10.1154L6.2001 11.1731V12.4115L3.35074 10.7404V7.38141L4.39689 7.99999ZM4.39689 5.88461V7.1173L3.3501 6.49807V5.26538L4.39689 4.64615L5.44882 5.26538L4.39689 5.88461ZM6.95074 5.26538L7.99753 4.64615L9.04946 5.26538L7.99753 5.88461L6.95074 5.26538Z" fill="white"/>
<path d="M5.15332 9.67692V8.43846L6.20012 9.05769V10.2904L5.15332 9.67692ZM6.95076 11.6167L7.99755 12.2359L9.04947 11.6167V12.8494L7.99755 13.4686L6.95076 12.8494V11.6167ZM10.5508 5.26538L11.5976 4.64615L12.6495 5.26538V6.49807L11.5976 7.1173V5.88461L10.5508 5.26538ZM11.5976 10.1154L11.6033 7.99999L12.6501 7.38076V10.7397L9.80076 12.4109V11.1724L11.5976 10.1154Z" fill="white"/>
<path d="M10.8466 9.67694L9.7998 10.2904V9.05771L10.8466 8.43848V9.67694Z" fill="white"/>
<path d="M10.8469 6.32307L10.8527 7.56153L9.05012 8.61922V10.7397L8.00332 11.3532L6.95652 10.7397V8.61922L5.15396 7.56153V6.32307L6.20524 5.70384L7.99691 6.76666L9.79947 5.70384L10.8514 6.32307H10.8469ZM5.15332 4.20833L7.99755 2.5314L10.8469 4.20833L9.80012 4.82756L7.99755 3.76474L6.20012 4.82756L5.15332 4.20833Z" fill="white"/>
</g>
<defs>
<clipPath id="clip0_80_4836">
<rect width="16" height="16" fill="white"/>
</clipPath>
</defs>
</svg>
