<svg width="24" height="24" viewBox="0 0 24 24" fill="none" xmlns="http://www.w3.org/2000/svg">
<path fill-rule="evenodd" clip-rule="evenodd" d="M2 15V16.2001V17C2 18.1 2.9 19 4 19H14L20.9729 14.6419L22 14L17 8L11 16L6 12L2 15ZM22 5V12.1255L17.9219 7.23178C17.687 6.94991 17.336 6.791 16.9693 6.80039C16.6025 6.80979 16.2601 6.98647 16.04 7.28L10.7829 14.2895L6.74963 11.063C6.3223 10.7211 5.7178 10.7116 5.28 11.04L2 13.5V5C2 3.9 2.9 3 4 3H20C21.1 3 22 3.9 22 5ZM8 6.5C8 7.32843 7.32843 8 6.5 8C5.67157 8 5 7.32843 5 6.5C5 5.67157 5.67157 5 6.5 5C7.32843 5 8 5.67157 8 6.5ZM21.5801 21.5485L19.8843 19.8528L18.1886 21.5485L17.3401 20.7L19.0358 19.0042L17.3401 17.3085L18.1886 16.46L19.8843 18.1557L21.5801 16.46L22.4286 17.3085L20.7329 19.0042L22.4286 20.7L21.5801 21.5485Z" fill="#EAECF0"/>
</svg>
