<svg width="16" height="16" viewBox="0 0 16 16" fill="none" xmlns="http://www.w3.org/2000/svg">
<g clip-path="url(#clip0_80_4872)">
<path d="M8 16C10.1217 16 12.1566 15.1571 13.6569 13.6569C15.1571 12.1566 16 10.1217 16 8C16 5.87827 15.1571 3.84344 13.6569 2.34315C12.1566 0.842855 10.1217 0 8 0C5.87827 0 3.84344 0.842855 2.34315 2.34315C0.842855 3.84344 0 5.87827 0 8C0 10.1217 0.842855 12.1566 2.34315 13.6569C3.84344 15.1571 5.87827 16 8 16Z" fill="#6F41D8"/>
<path d="M10.546 6.347C10.45 6.29412 10.3422 6.2664 10.2325 6.2664C10.1229 6.2664 10.0151 6.29412 9.91903 6.347L8.47903 7.173L7.50203 7.713L6.06203 8.53899C5.966 8.59187 5.85815 8.61959 5.74853 8.61959C5.6389 8.61959 5.53106 8.59187 5.43503 8.53899L4.29103 7.892C4.19852 7.83933 4.12113 7.76373 4.06631 7.67248C4.01149 7.58123 3.98108 7.4774 3.97803 7.371V6.095C3.9769 5.9877 4.00556 5.88219 4.06082 5.79021C4.11608 5.69823 4.19577 5.62339 4.29103 5.574L5.41603 4.945C5.51218 4.89195 5.62021 4.86412 5.73003 4.86412C5.83984 4.86412 5.94787 4.89195 6.04403 4.945L7.16903 5.574C7.26172 5.62654 7.33931 5.70208 7.39431 5.79334C7.44931 5.8846 7.47987 5.98849 7.48303 6.095V6.922L8.46103 6.365V5.538C8.46206 5.4306 8.43325 5.32502 8.37781 5.23303C8.32237 5.14104 8.24247 5.06625 8.14703 5.017L6.06203 3.831C5.966 3.77812 5.85815 3.7504 5.74853 3.7504C5.6389 3.7504 5.53106 3.77812 5.43503 3.831L3.31403 5.017C3.21858 5.06625 3.13869 5.14104 3.08324 5.23303C3.0278 5.32502 2.99899 5.4306 3.00003 5.538V7.928C3.00003 8.144 3.11003 8.342 3.31403 8.45L5.43503 9.63599C5.53106 9.68887 5.6389 9.71659 5.74853 9.71659C5.85815 9.71659 5.966 9.68887 6.06203 9.63599L7.50203 8.826L8.47903 8.27L9.91903 7.461C10.0151 7.40812 10.1229 7.3804 10.2325 7.3804C10.3422 7.3804 10.45 7.40812 10.546 7.461L11.672 8.09C11.7645 8.14266 11.8419 8.21826 11.8967 8.30951C11.9516 8.40076 11.982 8.50459 11.985 8.611V9.887C11.9862 9.99429 11.9575 10.0998 11.9022 10.1918C11.847 10.2838 11.7673 10.3586 11.672 10.408L10.547 11.055C10.4509 11.108 10.3428 11.1359 10.233 11.1359C10.1232 11.1359 10.0152 11.108 9.91903 11.055L8.79403 10.426C8.70133 10.3735 8.62374 10.2979 8.56874 10.2067C8.51374 10.1154 8.48318 10.0115 8.48003 9.90499V9.078L7.50203 9.63599V10.462C7.50203 10.678 7.61203 10.876 7.81603 10.983L9.93803 12.169C10.0341 12.2219 10.1419 12.2496 10.2515 12.2496C10.3612 12.2496 10.469 12.2219 10.565 12.169L12.687 10.983C12.7795 10.9303 12.8569 10.8547 12.9117 10.7635C12.9666 10.6722 12.997 10.5684 13 10.462V8.07199C13.0012 7.9647 12.9725 7.85919 12.9172 7.76721C12.862 7.67523 12.7823 7.60039 12.687 7.551L10.546 6.347Z" fill="white"/>
</g>
<defs>
<clipPath id="clip0_80_4872">
<rect width="16" height="16" rx="8" fill="white"/>
</clipPath>
</defs>
</svg>
