<svg width="512" height="512" viewBox="0 0 512 512" fill="none" xmlns="http://www.w3.org/2000/svg">
<g clip-path="url(#clip0_909_335)">
<path d="M256 512C397.385 512 512 397.385 512 256C512 114.615 397.385 0 256 0C114.615 0 0 114.615 0 256C0 397.385 114.615 512 256 512Z" fill="#005741"/>
<path d="M322.471 312.588V347.162H179.841C181.808 324.407 189.151 308.397 214.543 285.883L322.471 193.809V274.606H361.323V125.958H140.405V200.054H179.257V164.81H296.624L189.222 256.47L188.966 256.712C143.955 296.563 140.376 328.727 140.376 366.624V386.043H361.337V312.617H322.485L322.471 312.588Z" fill="white"/>
</g>
<defs>
<clipPath id="clip0_909_335">
<rect width="512" height="512" fill="white"/>
</clipPath>
</defs>
</svg>
